<?xml version="1.0" encoding="UTF-8"?>
<svg id="Layer_1" xmlns="http://www.w3.org/2000/svg" version="1.1" viewBox="0 0 152 117">
  <!-- Generator: Adobe Illustrator 29.1.0, SVG Export Plug-In . SVG Version: 2.1.0 Build 142)  -->
  <circle cx="76" cy="69.1" r="20" fill="white"/>
  <path d="M132.4,21h-22.9v-1.4c0-10.8-8.8-19.6-19.6-19.6h-28c-10.8,0-19.6,8.8-19.6,19.6v1.4h-22.9C8.8,21,0,29.8,0,40.6v56.9c0,10.8,8.8,19.6,19.6,19.6h112.9c10.8,0,19.6-8.8,19.6-19.6v-56.9c0-10.8-8.8-19.6-19.6-19.6ZM76,105.2c-19.9,0-36.1-16.2-36.1-36.1s16.2-36.1,36.1-36.1,36.1,16.2,36.1,36.1-16.2,36.1-36.1,36.1Z" fill="white"/>
</svg>