<?xml version="1.0" standalone="no"?>
<!DOCTYPE svg PUBLIC "-//W3C//DTD SVG 20010904//EN"
 "http://www.w3.org/TR/2001/REC-SVG-20010904/DTD/svg10.dtd">
<svg version="1.0" xmlns="http://www.w3.org/2000/svg"
 width="300.000000pt" height="183.000000pt" viewBox="0 0 300.000000 183.000000"
 preserveAspectRatio="xMidYMid meet">
<metadata>
Created by potrace 1.10, written by Peter Selinger 2001-2011
</metadata>
<g transform="translate(0.000000,183.000000) scale(0.100000,-0.100000)"
fill="#000000" stroke="none">
<path d="M1519 1747 c-14 -12 -54 -56 -90 -97 -35 -41 -100 -116 -144 -165
-44 -50 -96 -110 -116 -134 l-36 -44 -192 92 c-105 50 -202 91 -215 91 -12 0
-30 -8 -39 -18 -9 -10 -43 -104 -76 -208 -33 -104 -65 -202 -71 -218 -9 -25
-8 -34 8 -55 25 -33 55 -33 235 2 152 29 142 24 276 147 51 47 98 84 104 84 7
-1 90 -25 186 -53 96 -28 182 -49 192 -46 25 8 270 230 292 265 19 30 19 30
-2 66 -23 39 -128 177 -199 262 -49 58 -72 65 -113 29z m174 -162 c64 -84 117
-160 117 -167 0 -12 -258 -249 -279 -256 -12 -4 -354 97 -365 108 -5 5 55 82
140 180 82 94 172 198 199 230 28 32 55 59 60 59 6 0 63 -69 128 -154z m-770
-219 c107 -51 197 -98 200 -103 5 -8 -145 -156 -197 -192 -25 -18 -345 -81
-352 -69 -3 5 -1 23 5 41 89 284 134 417 141 417 5 0 96 -42 203 -94z"/>
<path d="M1571 1634 c-1 -39 -4 -85 -7 -102 -6 -29 -4 -31 37 -42 24 -6 71
-20 103 -30 33 -11 61 -19 62 -17 2 1 -34 50 -79 108 -45 58 -90 116 -99 129
-17 25 -17 24 -17 -46z m69 -85 c7 -11 9 -24 5 -27 -9 -9 -40 13 -43 32 -5 23
25 20 38 -5z"/>
<path d="M1504 1605 l-42 -75 36 -10 c20 -5 37 -8 38 -7 4 4 16 167 13 167 -2
-1 -23 -34 -45 -75z"/>
<path d="M1429 1558 c-128 -145 -129 -147 -61 -88 35 30 76 76 92 103 17 26
28 47 27 47 -2 0 -28 -28 -58 -62z"/>
<path d="M1318 1395 l-128 -114 43 -11 c23 -7 94 -27 158 -46 64 -19 118 -34
121 -34 3 0 9 51 12 113 4 61 9 128 12 148 5 33 3 37 -23 42 -15 4 -37 9 -48
12 -15 4 -51 -23 -147 -110z m170 52 c10 -12 1 -191 -11 -203 -5 -5 -121 26
-177 48 -25 10 -24 11 60 89 84 78 108 91 128 66z"/>
<path d="M1555 1370 c-3 -58 -9 -121 -12 -140 l-6 -35 69 62 c38 34 93 83 122
110 l53 48 -109 30 -110 31 -7 -106z m104 39 c17 -6 31 -14 31 -19 0 -4 -21
-27 -47 -51 l-48 -44 -3 49 c-5 78 4 87 67 65z"/>
<path d="M750 1416 c0 -2 23 -47 51 -100 30 -56 56 -95 63 -93 6 3 58 13 113
23 l102 17 -161 79 c-159 77 -168 81 -168 74z m148 -106 c18 -11 30 -25 27
-30 -11 -18 -54 -10 -69 12 -30 43 -12 51 42 18z"/>
<path d="M710 1387 c0 -7 -24 -86 -53 -175 -29 -89 -49 -161 -45 -160 4 2 40
36 82 76 l75 73 -22 99 c-12 55 -25 100 -29 100 -5 0 -8 -6 -8 -13z"/>
<path d="M760 1337 c-1 -26 35 -127 47 -127 7 0 13 6 13 13 -1 14 -59 126 -60
114z"/>
<path d="M958 1218 l-97 -20 27 -54 26 -54 31 28 c16 15 53 49 82 75 29 26 47
47 40 46 -7 -1 -56 -10 -109 -21z"/>
<path d="M708 1112 c-47 -42 -87 -80 -87 -83 -1 -3 47 5 107 17 59 13 119 24
135 24 15 0 27 3 27 7 0 4 -12 31 -27 60 -20 38 -34 53 -48 52 -11 0 -59 -35
-107 -77z m115 14 c8 -19 -1 -26 -36 -26 -29 0 -30 0 -12 20 21 23 41 26 48 6z"/>
<path d="M2065 1415 c-149 -30 -173 -38 -193 -61 -29 -33 -25 -45 45 -154 30
-47 76 -117 101 -157 62 -97 71 -101 180 -80 326 62 306 48 310 213 4 130 1
150 -28 181 -15 17 -226 97 -242 92 -2 0 -79 -16 -173 -34z m295 -43 l105 -37
0 -140 0 -140 -180 -37 c-99 -21 -183 -34 -187 -30 -28 30 -217 337 -211 343
9 9 315 77 348 77 11 0 67 -16 125 -36z"/>
<path d="M2130 1364 l-105 -22 118 -1 c64 -1 117 2 117 7 0 4 -6 14 -13 22
-11 13 -24 13 -117 -6z"/>
<path d="M2280 1359 c8 -14 21 -19 52 -19 49 0 48 2 -15 23 -46 15 -47 15 -37
-4z"/>
<path d="M1923 1307 c12 -30 179 -282 188 -282 14 0 219 195 218 208 0 7 -10
27 -22 45 l-22 32 -183 4 c-136 3 -182 1 -179 -7z m324 -33 c12 -3 25 -16 29
-27 5 -17 -8 -35 -72 -94 -44 -40 -82 -73 -87 -73 -9 0 -117 165 -117 179 0 5
6 12 13 14 17 8 208 8 234 1z"/>
<path d="M2319 1303 c5 -10 16 -27 24 -38 14 -19 16 -18 53 18 l38 37 -62 0
c-57 0 -62 -2 -53 -17z"/>
<path d="M2406 1261 l-37 -38 36 -57 c19 -31 37 -56 38 -56 1 0 2 43 2 95 0
52 0 95 0 95 -1 0 -18 -17 -39 -39z"/>
<path d="M2324 1187 c-11 -12 -55 -55 -97 -96 -42 -40 -77 -74 -77 -75 0 -1
65 11 144 27 l144 30 -40 61 c-51 79 -50 78 -74 53z m31 -73 c0 -14 -8 -20
-35 -22 l-35 -4 24 26 c28 29 46 29 46 0z"/>
<path d="M1770 1054 c-117 -66 -159 -155 -235 -493 -39 -178 -48 -209 -65
-241 l-13 -24 -12 25 c-7 13 -24 69 -39 125 -46 186 -94 288 -163 356 -92 89
-194 90 -292 2 l-51 -46 0 82 c0 73 -3 83 -25 105 -19 20 -34 25 -74 25 -42 0
-53 -4 -70 -26 -20 -26 -21 -37 -21 -444 0 -407 1 -418 21 -444 18 -22 28 -26
74 -26 46 0 56 4 74 26 20 25 21 39 21 258 0 265 -1 261 84 301 121 57 152 28
212 -199 46 -176 75 -248 124 -308 72 -88 187 -90 264 -4 21 24 86 157 86 178
0 7 14 -14 31 -47 39 -78 80 -119 154 -156 74 -36 176 -50 279 -38 102 11 136
31 136 80 0 21 -8 47 -18 59 -18 22 -21 23 -86 10 -120 -23 -201 -3 -243 59
-29 43 -29 67 0 75 12 3 96 6 187 6 129 0 170 3 186 15 12 8 24 11 28 8 3 -3
6 -71 6 -149 0 -142 0 -143 26 -163 18 -14 41 -21 69 -21 36 0 48 5 69 31 25
30 26 34 26 180 l0 149 53 0 c89 0 110 -25 147 -180 26 -109 41 -142 72 -164
35 -24 100 -21 130 8 l26 23 -35 139 c-19 77 -47 163 -64 193 -16 30 -29 58
-29 62 0 4 14 22 32 40 47 51 68 104 68 179 0 134 -70 219 -207 255 -63 16
-231 19 -303 6 -77 -15 -80 -25 -80 -240 0 -103 -5 -193 -10 -201 -7 -12 -10
-12 -10 -1 0 7 -12 36 -26 65 -56 113 -139 161 -264 154 -96 -6 -142 -29 -227
-116 l-66 -66 7 49 c14 97 66 277 97 336 22 41 46 69 78 90 l46 31 -39 -5
c-97 -15 -146 -123 -221 -490 -72 -354 -117 -454 -212 -473 -107 -21 -178 63
-237 281 -71 260 -86 291 -148 312 -50 17 -120 -5 -178 -54 l-43 -37 7 29 c28
113 110 217 181 231 72 13 151 -29 201 -108 34 -53 76 -165 109 -288 47 -173
65 -201 105 -165 26 23 43 78 85 275 59 273 91 360 155 428 40 41 79 62 160
83 l65 17 -65 1 c-52 1 -74 -4 -110 -25z m-910 -554 l0 -430 -55 0 -55 0 0
430 0 430 55 0 55 0 0 -430z m1875 391 c113 -45 169 -145 144 -260 -12 -58
-66 -127 -116 -147 -18 -8 -33 -16 -33 -19 0 -2 13 -11 30 -20 43 -22 75 -86
104 -207 14 -59 32 -123 40 -143 l15 -35 -59 0 -59 0 -19 62 c-10 35 -25 91
-32 124 -27 132 -70 173 -189 181 l-81 6 0 -187 0 -186 -55 0 -55 0 0 419 0
420 48 4 c83 8 286 0 317 -12z m-601 -215 c91 -38 148 -132 150 -250 l1 -69
-212 2 c-238 3 -224 8 -203 -71 14 -50 55 -97 105 -119 49 -23 143 -25 210 -4
27 8 50 13 50 12 1 -1 6 -19 12 -40 11 -36 10 -39 -13 -47 -48 -19 -159 -32
-213 -27 -131 14 -238 75 -284 161 -33 63 -31 181 5 258 33 72 112 151 180
183 61 29 158 34 212 11z"/>
<path d="M2523 823 l-43 -4 0 -156 0 -155 93 4 c106 4 155 26 184 81 22 42 21
113 -1 155 -28 55 -124 85 -233 75z m140 -52 c63 -24 89 -108 51 -166 -21 -32
-90 -57 -145 -53 l-44 3 -3 99 c-1 55 0 106 2 113 6 15 101 18 139 4z"/>
<path d="M1949 587 c-34 -23 -72 -81 -84 -127 l-6 -25 161 0 160 0 0 25 c-1
43 -37 108 -72 130 -46 28 -115 27 -159 -3z m135 -18 c29 -13 62 -70 53 -92
-4 -11 -15 -15 -34 -12 -15 2 -65 4 -110 4 -72 1 -83 3 -83 19 1 23 32 59 67
77 34 18 73 19 107 4z"/>
<path d="M99 963 c-15 -2 -36 -14 -48 -27 -21 -22 -21 -27 -21 -441 0 -417 0
-418 22 -442 16 -17 32 -23 64 -23 91 0 98 13 104 210 l5 155 42 3 c51 4 98
-18 117 -57 8 -15 27 -74 41 -131 41 -162 55 -180 143 -180 53 0 82 20 82 56
0 32 -67 280 -86 316 -9 18 -23 41 -31 50 -14 15 -11 22 25 65 55 64 72 110
72 187 0 117 -76 216 -192 251 -49 14 -265 19 -339 8z m372 -66 c81 -39 113
-88 117 -182 3 -58 0 -80 -16 -112 -24 -46 -82 -100 -117 -109 -33 -8 -32 -17
4 -31 46 -17 78 -77 115 -218 19 -72 37 -140 41 -152 7 -22 5 -23 -52 -23
l-59 0 -37 142 c-21 79 -45 154 -55 168 -30 42 -79 60 -159 60 l-73 0 0 -185
0 -185 -57 0 -58 0 2 422 3 423 32 7 c18 3 96 6 173 5 131 -2 144 -4 196 -30z"/>
<path d="M208 843 l-28 -4 0 -157 0 -157 97 5 c78 4 105 10 134 28 98 60 90
214 -12 265 -37 18 -142 29 -191 20z m180 -63 c52 -32 67 -96 35 -151 -25 -41
-72 -61 -141 -57 l-57 3 -3 99 c-1 55 0 106 2 113 9 22 124 17 164 -7z"/>
</g>
</svg>
