<?xml version="1.0" encoding="UTF-8"?>
<svg id="Layer_1" data-name="Layer 1" xmlns="http://www.w3.org/2000/svg" xmlns:xlink="http://www.w3.org/1999/xlink" viewBox="0 0 93.72 38.78">
  <defs>
    <style>
      .cls-1 {
        fill: url(#linear-gradient);
      }

      .cls-2 {
        fill: #212121;
      }
    </style>
    <linearGradient id="linear-gradient" x1="33.62" y1="14.88" x2="72.16" y2="14.88" gradientUnits="userSpaceOnUse">
      <stop offset="0" stop-color="#9cecfb"/>
      <stop offset=".14" stop-color="#97e9fa"/>
      <stop offset=".28" stop-color="#8be0f9"/>
      <stop offset=".43" stop-color="#76d2f8"/>
      <stop offset=".52" stop-color="#65c7f7"/>
      <stop offset=".63" stop-color="#52b1f0"/>
      <stop offset=".86" stop-color="#2178df"/>
      <stop offset="1" stop-color="#0052d4"/>
    </linearGradient>
  </defs>
  <polygon points="45.4 11.3 45.4 11.3 45.4 11.3 45.4 11.3"/>
  <path class="cls-2" d="M7.7,18.53h-3.77v9.14c0,1.1-.85,1.99-1.99,1.99s-1.95-.89-1.95-1.99V1.99C0,1.06.76.3,1.65.3h9.56c6.13,0,8.63,4.57,8.63,9.14,0,4.32-2.16,8.5-7.62,8.97l5.71,8.12c.63.93.47,2.12-.47,2.75-.89.68-2.07.42-2.75-.51l-7.02-10.24ZM3.98,3.98v10.87h6.94c3.55,0,4.87-2.71,4.87-5.42s-1.31-5.46-4.7-5.46H3.98Z"/>
  <path class="cls-2" d="M29.7,27.67c0,1.1-.85,1.99-1.99,1.99s-1.95-.89-1.95-1.99V2.08c0-1.1.85-1.99,1.95-1.99s1.99.89,1.99,1.99v25.59Z"/>
  <path class="cls-2" d="M81.57,18.68h-3.77v9.14c0,1.1-.85,1.99-1.99,1.99s-1.95-.89-1.95-1.99V2.14c0-.93.76-1.69,1.65-1.69h9.56c6.13,0,8.63,4.57,8.63,9.14,0,4.32-2.16,8.5-7.62,8.97l5.71,8.12c.63.93.47,2.12-.47,2.75-.89.68-2.07.42-2.75-.51l-7.02-10.24ZM77.85,4.13v10.87h6.94c3.55,0,4.87-2.71,4.87-5.42s-1.31-5.46-4.7-5.46h-7.11Z"/>
  <g>
    <path class="cls-2" d="M1.36,36.34h-.44v1.07c0,.13-.1.23-.23.23s-.23-.1-.23-.23v-3.02c0-.11.09-.2.19-.2h1.12c.72,0,1.01.54,1.01,1.07,0,.51-.25,1-.9,1.05l.67.95c.07.11.05.25-.05.32-.1.08-.24.05-.32-.06l-.83-1.2ZM.92,34.63v1.28h.82c.42,0,.57-.32.57-.64s-.15-.64-.55-.64h-.84Z"/>
    <path class="cls-2" d="M5.57,36.63h-1.71c.05.39.36.63.75.63.28,0,.43-.07.59-.24.08-.09.21-.12.3-.06.09.07.11.2.04.28-.22.29-.57.43-.95.43-.66,0-1.19-.48-1.19-1.22s.53-1.2,1.19-1.2,1.15.47,1.15,1.2c0,.1-.08.18-.18.18ZM5.3,36.28c-.05-.39-.33-.62-.71-.62s-.68.23-.74.62h1.44Z"/>
    <path class="cls-2" d="M7.64,37.23c.16,0,.32-.05.44-.14.11-.07.23-.07.32.02.08.09.07.25-.02.32-.2.15-.46.23-.74.23-.66,0-1.23-.48-1.23-1.22,0-.73.57-1.2,1.23-1.2.28,0,.53.09.74.23.1.07.11.23.02.32-.07.08-.21.09-.32.02-.12-.09-.28-.14-.44-.14-.42,0-.79.31-.79.78,0,.46.37.77.79.77Z"/>
    <path class="cls-2" d="M9.19,35.68c-.1,0-.19-.08-.19-.19s.09-.19.19-.19h.25v-.67c0-.12.1-.23.22-.23s.23.1.23.23v.67h.33c.1,0,.19.08.19.19s-.09.19-.19.19h-.33v1.74c0,.12-.1.23-.23.23s-.22-.1-.22-.23v-1.74h-.25Z"/>
    <path class="cls-2" d="M11.33,34.15c.17,0,.31.12.31.29s-.14.29-.31.29-.31-.12-.31-.29.14-.29.31-.29ZM11.56,35.5c0-.12-.1-.23-.23-.23s-.22.1-.22.23v1.91c0,.12.1.23.22.23s.23-.1.23-.23v-1.91Z"/>
    <path class="cls-2" d="M13.18,35.68v1.74c0,.12-.1.23-.23.23s-.22-.1-.22-.23v-1.74h-.28c-.1,0-.19-.08-.19-.19s.09-.19.19-.19h.28v-.26c0-.61.26-1.03.89-1.03h.02c.12,0,.22.09.22.22s-.1.21-.22.21h-.02c-.37,0-.44.3-.44.6v.26h1.24c.13,0,.23.1.23.23v1.89c0,.12-.1.23-.23.23s-.22-.1-.22-.23v-1.74h-1.01ZM14.42,34.15c.17,0,.31.12.31.29s-.14.29-.31.29-.31-.12-.31-.29.14-.29.31-.29Z"/>
    <path class="cls-2" d="M16.72,37.23c.16,0,.32-.05.44-.14.11-.07.23-.07.32.02.08.09.07.25-.02.32-.2.15-.46.23-.74.23-.66,0-1.23-.48-1.23-1.22,0-.73.57-1.2,1.23-1.2.28,0,.53.09.74.23.1.07.11.23.02.32-.07.08-.21.09-.32.02-.12-.09-.28-.14-.44-.14-.42,0-.79.31-.79.78,0,.46.37.77.79.77Z"/>
    <path class="cls-2" d="M20.18,37.26c-.15.26-.49.41-.82.41-.64,0-1.18-.48-1.18-1.21s.54-1.21,1.18-1.21c.32,0,.66.13.82.4v-.14c0-.12.1-.23.22-.23s.23.1.23.23v1.91c0,.12-.1.23-.23.23s-.22-.1-.22-.23v-.15ZM19.4,35.69c-.42,0-.76.3-.76.76s.34.78.76.78.77-.28.77-.78-.4-.76-.77-.76Z"/>
    <path class="cls-2" d="M21.53,35.68c-.1,0-.19-.08-.19-.19s.09-.19.19-.19h.25v-.67c0-.12.1-.23.22-.23s.23.1.23.23v.67h.33c.1,0,.19.08.19.19s-.09.19-.19.19h-.33v1.74c0,.12-.1.23-.23.23s-.22-.1-.22-.23v-1.74h-.25Z"/>
    <path class="cls-2" d="M23.67,34.15c.17,0,.31.12.31.29s-.14.29-.31.29-.31-.12-.31-.29.14-.29.31-.29ZM23.9,35.5c0-.12-.1-.23-.23-.23s-.22.1-.22.23v1.91c0,.12.1.23.22.23s.23-.1.23-.23v-1.91Z"/>
    <path class="cls-2" d="M24.74,36.45c0-.74.55-1.2,1.21-1.2s1.22.47,1.22,1.2-.56,1.22-1.22,1.22-1.21-.48-1.21-1.22ZM26.72,36.45c0-.47-.35-.76-.77-.76s-.77.29-.77.76.35.78.77.78.77-.31.77-.78Z"/>
    <path class="cls-2" d="M28.47,35.65c.14-.28.47-.4.73-.4.58,0,.9.38.9,1.03v1.14c0,.12-.1.23-.23.23s-.22-.1-.22-.23v-1.11c0-.39-.19-.62-.51-.62s-.66.18-.66.68v1.05c0,.12-.1.23-.23.23s-.22-.1-.22-.23v-1.91c0-.12.1-.23.22-.23s.23.1.23.23v.14Z"/>
    <path class="cls-2" d="M32.46,36.45c0-.74.55-1.2,1.21-1.2s1.22.47,1.22,1.2-.56,1.22-1.22,1.22-1.21-.48-1.21-1.22ZM34.44,36.45c0-.47-.35-.76-.77-.76s-.77.29-.77.76.35.78.77.78.77-.31.77-.78Z"/>
    <path class="cls-2" d="M36.35,37.42c0,.12-.1.23-.23.23s-.22-.1-.22-.23v-1.74h-.28c-.1,0-.19-.08-.19-.19s.09-.19.19-.19h.28v-.26c0-.61.26-1.03.89-1.03h.06c.12,0,.22.09.22.22s-.1.21-.22.21h-.06c-.37,0-.44.3-.44.6v.26h.4c.1,0,.19.08.19.19s-.09.19-.19.19h-.4v1.74Z"/>
    <path class="cls-2" d="M39.62,37.41c0,.13-.1.23-.23.23s-.23-.1-.23-.23v-3.01c0-.13.1-.23.23-.23s.23.1.23.23v3.01Z"/>
    <path class="cls-2" d="M40.69,35.5c0-.12.1-.23.22-.23s.23.1.23.23v.14c.12-.26.45-.38.64-.4.09,0,.17,0,.25.02.29.04.5.21.61.46.21-.41.58-.48.81-.48.58,0,.9.38.9,1.03v1.14c0,.12-.1.23-.23.23s-.22-.1-.22-.23v-1.11c0-.38-.2-.62-.53-.62-.38,0-.62.29-.62.68v1.05c0,.12-.1.23-.23.23s-.22-.1-.22-.23v-1.11c0-.38-.2-.62-.5-.62-.32,0-.65.2-.65.69v1.05c0,.12-.1.23-.23.23s-.22-.1-.22-.23v-1.91Z"/>
    <path class="cls-2" d="M47.17,37.26c-.15.26-.49.41-.82.41-.64,0-1.18-.48-1.18-1.21s.54-1.21,1.18-1.21c.32,0,.66.13.82.4v-.14c0-.12.1-.23.22-.23s.23.1.23.23v1.91c0,.12-.1.23-.23.23s-.22-.1-.22-.23v-.15ZM46.39,35.69c-.42,0-.76.3-.76.76s.34.78.76.78.77-.28.77-.78-.4-.76-.77-.76Z"/>
    <path class="cls-2" d="M49.64,38.35c.5,0,.83-.28.83-1.05,0-.02,0-.03,0-.05-.14.27-.49.43-.82.43-.64,0-1.18-.47-1.18-1.2s.54-1.22,1.18-1.22c.32,0,.66.14.82.41v-.16c0-.12.1-.23.22-.23s.23.1.23.23v1.77c0,1.09-.51,1.51-1.27,1.51-.37,0-.72-.16-.95-.47-.06-.09-.03-.23.07-.29.09-.06.22,0,.31.09.15.16.36.25.57.25ZM49.68,35.69c-.42,0-.76.32-.76.77s.34.77.76.77c.37,0,.77-.27.77-.77s-.36-.77-.77-.77Z"/>
    <path class="cls-2" d="M53.92,36.63h-1.71c.05.39.36.63.75.63.28,0,.43-.07.59-.24.08-.09.21-.12.3-.06.09.07.11.2.04.28-.22.29-.57.43-.95.43-.66,0-1.19-.48-1.19-1.22s.53-1.2,1.19-1.2,1.15.47,1.15,1.2c0,.1-.08.18-.18.18ZM53.65,36.28c-.05-.39-.33-.62-.71-.62s-.68.23-.74.62h1.44Z"/>
    <path class="cls-2" d="M56.1,34.45s0-.04,0-.06c0-.12.08-.22.23-.22.1,0,.19.06.23.19l.73,2.5.72-2.5c.04-.13.12-.19.23-.19.14,0,.23.09.23.22,0,.02,0,.04,0,.06l-.9,3.01c-.03.11-.12.18-.25.18h-.04c-.13,0-.22-.07-.25-.18l-.91-3.01Z"/>
    <path class="cls-2" d="M61.03,36.63h-1.71c.05.39.36.63.75.63.28,0,.43-.07.59-.24.08-.09.21-.12.3-.06.09.07.11.2.04.28-.22.29-.57.43-.95.43-.66,0-1.19-.48-1.19-1.22s.53-1.2,1.19-1.2,1.15.47,1.15,1.2c0,.1-.08.18-.18.18ZM60.76,36.28c-.05-.39-.33-.62-.71-.62s-.68.23-.74.62h1.44Z"/>
    <path class="cls-2" d="M62.46,37.42c0,.12-.1.23-.23.23s-.22-.1-.22-.23v-3.18c0-.12.1-.23.22-.23s.23.1.23.23v3.18Z"/>
    <path class="cls-2" d="M63.31,36.45c0-.74.55-1.2,1.21-1.2s1.22.47,1.22,1.2-.56,1.22-1.22,1.22-1.21-.48-1.21-1.22ZM65.29,36.45c0-.47-.35-.76-.77-.76s-.77.29-.77.76.35.78.77.78.77-.31.77-.78Z"/>
    <path class="cls-2" d="M67.68,37.23c.16,0,.32-.05.44-.14.11-.07.23-.07.32.02.08.09.07.25-.02.32-.2.15-.46.23-.74.23-.66,0-1.23-.48-1.23-1.22,0-.73.57-1.2,1.23-1.2.28,0,.53.09.74.23.1.07.11.23.02.32-.07.08-.21.09-.32.02-.12-.09-.28-.14-.44-.14-.42,0-.79.31-.79.78,0,.46.37.77.79.77Z"/>
    <path class="cls-2" d="M69.53,34.15c.17,0,.31.12.31.29s-.14.29-.31.29-.31-.12-.31-.29.14-.29.31-.29ZM69.76,35.5c0-.12-.1-.23-.23-.23s-.22.1-.22.23v1.91c0,.12.1.23.22.23s.23-.1.23-.23v-1.91Z"/>
    <path class="cls-2" d="M70.66,35.68c-.1,0-.19-.08-.19-.19s.09-.19.19-.19h.25v-.67c0-.12.1-.23.22-.23s.23.1.23.23v.67h.33c.1,0,.19.08.19.19s-.09.19-.19.19h-.33v1.74c0,.12-.1.23-.23.23s-.22-.1-.22-.23v-1.74h-.25Z"/>
    <path class="cls-2" d="M73.44,36.98l.65-1.57c.04-.11.18-.17.29-.12.12.04.17.18.12.29l-1.27,3.04c-.04.11-.17.17-.29.12-.11-.05-.15-.18-.11-.29l.37-.9-.82-1.97c-.04-.11.01-.26.13-.29.12-.03.24.02.29.14l.64,1.55Z"/>
    <path class="cls-2" d="M77.72,36.34h-.44v1.07c0,.13-.1.23-.23.23s-.23-.1-.23-.23v-3.02c0-.11.09-.2.19-.2h1.12c.72,0,1.01.54,1.01,1.07,0,.51-.25,1-.9,1.05l.67.95c.07.11.05.25-.05.32-.1.08-.24.05-.32-.06l-.83-1.2ZM77.28,34.63v1.28h.82c.42,0,.57-.32.57-.64s-.15-.64-.55-.64h-.84Z"/>
    <path class="cls-2" d="M81.93,36.63h-1.71c.05.39.36.63.75.63.28,0,.43-.07.59-.24.08-.09.21-.12.3-.06.09.07.11.2.04.28-.22.29-.57.43-.95.43-.66,0-1.19-.48-1.19-1.22s.53-1.2,1.19-1.2,1.15.47,1.15,1.2c0,.1-.08.18-.18.18ZM81.66,36.28c-.05-.39-.33-.62-.71-.62s-.68.23-.74.62h1.44Z"/>
    <path class="cls-2" d="M83.66,37.27c.23,0,.41-.12.41-.31,0-.17-.13-.25-.31-.29l-.32-.07c-.39-.1-.63-.3-.63-.67s.34-.68.81-.68c.3,0,.6.11.73.38.02.03.02.07.02.1,0,.15-.14.2-.21.2-.06,0-.11-.03-.16-.1-.1-.14-.22-.19-.37-.19-.22,0-.36.13-.36.3,0,.15.14.23.29.27l.34.08c.48.12.6.41.6.68,0,.43-.42.7-.9.7-.36,0-.73-.2-.84-.56,0-.02,0-.05,0-.07,0-.12.11-.18.22-.18.08,0,.16.04.19.13.06.17.25.28.48.28Z"/>
    <path class="cls-2" d="M86.92,37.27c-.14.28-.47.4-.73.4-.58,0-.9-.38-.9-1.03v-1.14c0-.12.1-.23.23-.23s.22.1.22.23v1.11c0,.39.19.62.51.62s.66-.18.66-.68v-1.05c0-.12.1-.23.23-.23s.22.1.22.23v1.91c0,.12-.1.23-.22.23s-.23-.1-.23-.23v-.14Z"/>
    <path class="cls-2" d="M88.81,37.42c0,.12-.1.23-.23.23s-.22-.1-.22-.23v-3.18c0-.12.1-.23.22-.23s.23.1.23.23v3.18Z"/>
    <path class="cls-2" d="M89.72,35.68c-.1,0-.19-.08-.19-.19s.09-.19.19-.19h.25v-.67c0-.12.1-.23.22-.23s.23.1.23.23v.67h.33c.1,0,.19.08.19.19s-.09.19-.19.19h-.33v1.74c0,.12-.1.23-.23.23s-.22-.1-.22-.23v-1.74h-.25Z"/>
    <path class="cls-2" d="M92.39,37.27c.23,0,.41-.12.41-.31,0-.17-.13-.25-.31-.29l-.32-.07c-.39-.1-.63-.3-.63-.67s.34-.68.81-.68c.3,0,.6.11.73.38.02.03.02.07.02.1,0,.15-.14.2-.21.2-.06,0-.11-.03-.16-.1-.1-.14-.22-.19-.37-.19-.22,0-.36.13-.36.3,0,.15.14.23.29.27l.34.08c.48.12.6.41.6.68,0,.43-.42.7-.9.7-.36,0-.73-.2-.84-.56,0-.02,0-.05,0-.07,0-.12.11-.18.22-.18.08,0,.16.04.19.13.06.17.25.28.48.28Z"/>
  </g>
  <path class="cls-1" d="M72.73,18.69c0-6.27-4.19-10.25-9.83-10.25-1.49,0-2.9.29-4.17.81,0-.01,0-.02,0-.03-.13-.51-.45-1.06-.82-1.45-4.87-5.43-7.25,7.61-8.53,12.47-.3,1.05-.87,2.39-2,2.66-5.46.23-2.02-19.25-11.7-22.77-2.58-.78-3.1,1.92-3.03,3.88-.02,1.53-.1,3.81.62,5.1.56.92,1.46,1.08,2.47,3.12,2.91,5.84,2.37,16.42,10.49,17.51,4.26.17,6.33-3.93,7.04-7.65,1.31,4.3,5.1,6.97,9.63,6.97,3.22,0,6.18-1.19,8.09-3.64.59-.68.42-1.82-.34-2.41-.76-.55-1.86-.3-2.58.51-1.36,1.48-2.67,2.08-5.04,2.08-3.35,0-5.93-2.08-6.39-5.38h14.57c.8,0,1.52-.64,1.52-1.52ZM56.64,17.21c.47-3.3,3.01-5.29,6.27-5.29s5.55,1.99,6.01,5.29h-12.28Z"/>
</svg>