<?xml version="1.0" encoding="UTF-8"?>
<svg id="Layer_1" data-name="Layer 1" xmlns="http://www.w3.org/2000/svg" xmlns:xlink="http://www.w3.org/1999/xlink" viewBox="0 0 276.76 114.52">
  <defs>
    <style>
      .cls-1 {
        fill: url(#linear-gradient);
      }

      .cls-2 {
        fill: #212121;
      }
    </style>
    <linearGradient id="linear-gradient" x1="99.3" y1="43.93" x2="213.1" y2="43.93" gradientUnits="userSpaceOnUse">
      <stop offset="0" stop-color="#9cecfb"/>
      <stop offset=".14" stop-color="#97e9fa"/>
      <stop offset=".28" stop-color="#8be0f9"/>
      <stop offset=".43" stop-color="#76d2f8"/>
      <stop offset=".52" stop-color="#65c7f7"/>
      <stop offset=".63" stop-color="#52b1f0"/>
      <stop offset=".86" stop-color="#2178df"/>
      <stop offset="1" stop-color="#0052d4"/>
    </linearGradient>
  </defs>
  <polygon points="134.08 33.37 134.07 33.37 134.08 33.38 134.08 33.37"/>
  <path class="cls-2" d="M22.74,54.74h-11.12v26.99c0,3.25-2.5,5.87-5.87,5.87s-5.75-2.62-5.75-5.87V5.89C0,3.14,2.25.89,4.87.89h28.24c18.12,0,25.49,13.49,25.49,26.99,0,12.74-6.37,25.11-22.49,26.49l16.87,23.99c1.87,2.75,1.37,6.25-1.37,8.12-2.62,2-6.12,1.25-8.12-1.5l-20.74-30.23ZM11.74,11.76v32.11h20.49c10.49,0,14.37-8,14.37-15.99s-3.87-16.12-13.87-16.12H11.74Z"/>
  <path class="cls-2" d="M87.72,81.72c0,3.25-2.5,5.87-5.87,5.87s-5.75-2.62-5.75-5.87V6.14c0-3.25,2.5-5.87,5.75-5.87s5.87,2.62,5.87,5.87v75.59Z"/>
  <path class="cls-2" d="M240.9,55.17h-11.12v26.99c0,3.25-2.5,5.87-5.87,5.87s-5.75-2.62-5.75-5.87V6.32c0-2.75,2.25-5,4.87-5h28.24c18.12,0,25.49,13.49,25.49,26.99,0,12.74-6.37,25.11-22.49,26.49l16.87,23.99c1.87,2.75,1.37,6.25-1.37,8.12-2.62,2-6.12,1.25-8.12-1.5l-20.74-30.23ZM229.91,12.19v32.11h20.49c10.49,0,14.37-8,14.37-15.99s-3.87-16.12-13.87-16.12h-20.99Z"/>
  <g>
    <path class="cls-2" d="M4.01,107.31h-1.31v3.17c0,.38-.29.69-.69.69s-.68-.31-.68-.69v-8.91c0-.32.26-.59.57-.59h3.32c2.13,0,3,1.59,3,3.17,0,1.5-.75,2.95-2.64,3.11l1.98,2.82c.22.32.16.73-.16.95-.31.23-.72.15-.95-.18l-2.44-3.55ZM2.72,102.26v3.77h2.41c1.23,0,1.69-.94,1.69-1.88s-.46-1.89-1.63-1.89h-2.47Z"/>
    <path class="cls-2" d="M16.46,108.18h-5.05c.16,1.15,1.06,1.87,2.22,1.87.82,0,1.28-.21,1.75-.72.25-.28.63-.37.9-.18.26.21.32.6.12.84-.66.85-1.69,1.26-2.81,1.26-1.95,0-3.51-1.42-3.51-3.6s1.56-3.55,3.51-3.55,3.41,1.38,3.41,3.55c0,.31-.25.53-.53.53ZM15.67,107.13c-.16-1.15-.98-1.84-2.09-1.84s-2.01.69-2.17,1.84h4.26Z"/>
    <path class="cls-2" d="M22.55,109.95c.49,0,.94-.15,1.31-.41.32-.21.69-.22.94.06.25.28.22.75-.07.95-.6.44-1.35.69-2.17.69-1.95,0-3.63-1.42-3.63-3.6.02-2.14,1.69-3.55,3.63-3.55.82,0,1.56.26,2.17.69.29.21.32.68.07.95-.22.23-.63.28-.94.06-.37-.26-.82-.41-1.31-.41-1.23,0-2.32.92-2.32,2.31.03,1.35,1.1,2.26,2.32,2.26Z"/>
    <path class="cls-2" d="M27.14,105.37c-.31,0-.57-.25-.57-.57s.26-.56.57-.56h.73v-1.98c0-.37.29-.68.66-.68s.68.31.68.68v1.98h.97c.31,0,.57.25.57.57s-.26.56-.57.56h-.97v5.12c0,.37-.29.68-.68.68s-.66-.31-.66-.68v-5.12h-.73Z"/>
    <path class="cls-2" d="M33.46,100.86c.51,0,.93.37.93.87s-.41.87-.93.87-.92-.37-.92-.87.43-.87.92-.87ZM34.13,104.84c0-.37-.29-.68-.68-.68s-.66.31-.66.68v5.65c0,.37.29.68.66.68s.68-.31.68-.68v-5.65Z"/>
    <path class="cls-2" d="M38.93,105.37v5.12c0,.37-.29.68-.68.68s-.66-.31-.66-.68v-5.12h-.82c-.31,0-.57-.25-.57-.57s.26-.56.57-.56h.82v-.76c0-1.81.78-3.04,2.63-3.04h.07c.35,0,.65.28.65.65s-.29.63-.65.63h-.07c-1.1,0-1.31.88-1.29,1.76v.76h3.66c.38,0,.68.31.68.68v5.58c0,.37-.29.68-.68.68s-.66-.31-.66-.68v-5.12h-3ZM42.59,100.86c.51,0,.93.37.93.87s-.41.87-.93.87-.92-.37-.92-.87.43-.87.92-.87Z"/>
    <path class="cls-2" d="M49.37,109.95c.49,0,.94-.15,1.31-.41.32-.21.69-.22.94.06.25.28.22.75-.07.95-.6.44-1.35.69-2.17.69-1.95,0-3.63-1.42-3.63-3.6.02-2.14,1.69-3.55,3.63-3.55.82,0,1.56.26,2.17.69.29.21.32.68.07.95-.22.23-.63.28-.94.06-.37-.26-.82-.41-1.31-.41-1.23,0-2.32.92-2.32,2.31.03,1.35,1.1,2.26,2.32,2.26Z"/>
    <path class="cls-2" d="M59.59,110.04c-.45.78-1.45,1.2-2.41,1.2-1.88,0-3.48-1.41-3.48-3.58s1.6-3.57,3.48-3.57c.95,0,1.95.4,2.41,1.17v-.43c0-.37.29-.68.66-.68s.68.31.68.68v5.65c0,.37-.29.68-.68.68s-.66-.31-.66-.68v-.45ZM57.3,105.4c-1.23,0-2.23.88-2.23,2.25s1,2.29,2.23,2.29,2.28-.84,2.28-2.29-1.17-2.25-2.28-2.25Z"/>
    <path class="cls-2" d="M63.59,105.37c-.31,0-.57-.25-.57-.57s.26-.56.57-.56h.73v-1.98c0-.37.29-.68.66-.68s.68.31.68.68v1.98h.97c.31,0,.57.25.57.57s-.26.56-.57.56h-.97v5.12c0,.37-.29.68-.68.68s-.66-.31-.66-.68v-5.12h-.73Z"/>
    <path class="cls-2" d="M69.9,100.86c.51,0,.93.37.93.87s-.41.87-.93.87-.92-.37-.92-.87.43-.87.92-.87ZM70.58,104.84c0-.37-.29-.68-.68-.68s-.66.31-.66.68v5.65c0,.37.29.68.66.68s.68-.31.68-.68v-5.65Z"/>
    <path class="cls-2" d="M73.07,107.65c0-2.17,1.63-3.55,3.58-3.55s3.6,1.38,3.6,3.55-1.64,3.6-3.6,3.6-3.58-1.42-3.58-3.6ZM78.92,107.65c0-1.38-1.03-2.25-2.26-2.25s-2.26.87-2.26,2.25,1.03,2.31,2.26,2.31,2.26-.91,2.26-2.31Z"/>
    <path class="cls-2" d="M84.08,105.27c.41-.82,1.4-1.17,2.14-1.17,1.7,0,2.64,1.12,2.64,3.04v3.36c0,.37-.29.68-.68.68s-.66-.31-.66-.68v-3.27c0-1.15-.57-1.82-1.51-1.82s-1.94.54-1.94,2v3.1c0,.37-.29.68-.68.68s-.66-.31-.66-.68v-5.65c0-.37.29-.68.66-.68s.68.31.68.68v.43Z"/>
    <path class="cls-2" d="M95.87,107.65c0-2.17,1.63-3.55,3.58-3.55s3.6,1.38,3.6,3.55-1.64,3.6-3.6,3.6-3.58-1.42-3.58-3.6ZM101.72,107.65c0-1.38-1.03-2.25-2.26-2.25s-2.26.87-2.26,2.25,1.03,2.31,2.26,2.31,2.26-.91,2.26-2.31Z"/>
    <path class="cls-2" d="M107.35,110.5c0,.37-.29.68-.68.68s-.66-.31-.66-.68v-5.12h-.82c-.31,0-.57-.25-.57-.57s.26-.56.57-.56h.82v-.76c0-1.81.78-3.04,2.63-3.04h.19c.35,0,.65.28.65.65s-.29.63-.65.63h-.19c-1.1,0-1.31.88-1.29,1.76v.76h1.19c.31,0,.57.25.57.57s-.26.56-.57.56h-1.19v5.12Z"/>
    <path class="cls-2" d="M117.01,110.48c0,.38-.29.69-.69.69s-.68-.31-.68-.69v-8.88c0-.38.29-.69.68-.69s.69.31.69.69v8.88Z"/>
    <path class="cls-2" d="M120.18,104.84c0-.37.29-.68.66-.68s.68.31.68.68v.43c.37-.76,1.34-1.13,1.89-1.17.26-.01.51,0,.75.04.87.13,1.47.62,1.79,1.37.63-1.22,1.7-1.41,2.38-1.41,1.72,0,2.64,1.12,2.64,3.04v3.36c0,.37-.29.68-.68.68s-.66-.31-.66-.68v-3.27c0-1.13-.59-1.82-1.57-1.82-1.13-.01-1.82.85-1.82,2v3.1c0,.37-.29.68-.68.68s-.66-.31-.66-.68v-3.29c0-1.13-.59-1.84-1.48-1.84-.95,0-1.91.59-1.91,2.03v3.1c0,.37-.29.68-.68.68s-.66-.31-.66-.68v-5.65Z"/>
    <path class="cls-2" d="M139.29,110.04c-.45.78-1.45,1.2-2.41,1.2-1.88,0-3.48-1.41-3.48-3.58s1.6-3.57,3.48-3.57c.95,0,1.95.4,2.41,1.17v-.43c0-.37.29-.68.66-.68s.68.31.68.68v5.65c0,.37-.29.68-.68.68s-.66-.31-.66-.68v-.45ZM137,105.4c-1.23,0-2.23.88-2.23,2.25s1,2.29,2.23,2.29,2.28-.84,2.28-2.29-1.17-2.25-2.28-2.25Z"/>
    <path class="cls-2" d="M146.59,113.26c1.48,0,2.44-.84,2.44-3.11,0-.06,0-.1-.02-.16-.41.81-1.45,1.26-2.41,1.26-1.88,0-3.48-1.38-3.48-3.55s1.6-3.6,3.48-3.6c.95,0,1.95.43,2.41,1.22v-.47c0-.37.29-.68.66-.68s.68.31.68.68v5.21c-.02,3.23-1.5,4.46-3.76,4.46-1.09,0-2.11-.49-2.81-1.4-.19-.28-.09-.69.22-.87.28-.18.65-.03.91.26.44.49,1.07.73,1.67.73ZM146.72,105.4c-1.23,0-2.23.94-2.23,2.28s1,2.26,2.23,2.26c1.1,0,2.28-.81,2.28-2.26s-1.06-2.28-2.28-2.28Z"/>
    <path class="cls-2" d="M159.24,108.18h-5.05c.16,1.15,1.06,1.87,2.22,1.87.82,0,1.28-.21,1.75-.72.25-.28.63-.37.9-.18.26.21.32.6.12.84-.66.85-1.69,1.26-2.81,1.26-1.95,0-3.51-1.42-3.51-3.6s1.56-3.55,3.51-3.55,3.41,1.38,3.41,3.55c0,.31-.25.53-.53.53ZM158.45,107.13c-.16-1.15-.98-1.84-2.09-1.84s-2.01.69-2.17,1.84h4.26Z"/>
    <path class="cls-2" d="M165.69,101.74c-.01-.06-.03-.13-.03-.19,0-.37.25-.65.68-.65.31,0,.57.18.69.57l2.14,7.37,2.13-7.37c.12-.4.37-.57.69-.57.43,0,.68.28.68.65,0,.06-.01.13-.03.19l-2.66,8.88c-.1.32-.35.54-.73.54h-.13c-.4,0-.65-.22-.73-.54l-2.69-8.88Z"/>
    <path class="cls-2" d="M180.24,108.18h-5.05c.16,1.15,1.06,1.87,2.22,1.87.82,0,1.28-.21,1.75-.72.25-.28.63-.37.9-.18.26.21.32.6.12.84-.66.85-1.69,1.26-2.81,1.26-1.95,0-3.51-1.42-3.51-3.6s1.56-3.55,3.51-3.55,3.41,1.38,3.41,3.55c0,.31-.25.53-.53.53ZM179.44,107.13c-.16-1.15-.98-1.84-2.09-1.84s-2.01.69-2.17,1.84h4.26Z"/>
    <path class="cls-2" d="M184.46,110.5c0,.37-.29.68-.68.68s-.66-.31-.66-.68v-9.38c0-.37.29-.68.66-.68s.68.31.68.68v9.38Z"/>
    <path class="cls-2" d="M186.97,107.65c0-2.17,1.63-3.55,3.58-3.55s3.6,1.38,3.6,3.55-1.64,3.6-3.6,3.6-3.58-1.42-3.58-3.6ZM192.82,107.65c0-1.38-1.03-2.25-2.26-2.25s-2.26.87-2.26,2.25,1.03,2.31,2.26,2.31,2.26-.91,2.26-2.31Z"/>
    <path class="cls-2" d="M199.86,109.95c.49,0,.94-.15,1.31-.41.32-.21.69-.22.94.06.25.28.22.75-.07.95-.6.44-1.35.69-2.17.69-1.95,0-3.63-1.42-3.63-3.6.02-2.14,1.69-3.55,3.63-3.55.82,0,1.56.26,2.17.69.29.21.32.68.07.95-.22.23-.63.28-.94.06-.37-.26-.82-.41-1.31-.41-1.23,0-2.32.92-2.32,2.31.03,1.35,1.1,2.26,2.32,2.26Z"/>
    <path class="cls-2" d="M205.34,100.86c.51,0,.93.37.93.87s-.41.87-.93.87-.92-.37-.92-.87.43-.87.92-.87ZM206.01,104.84c0-.37-.29-.68-.68-.68s-.66.31-.66.68v5.65c0,.37.29.68.66.68s.68-.31.68-.68v-5.65Z"/>
    <path class="cls-2" d="M208.68,105.37c-.31,0-.57-.25-.57-.57s.26-.56.57-.56h.73v-1.98c0-.37.29-.68.66-.68s.68.31.68.68v1.98h.97c.31,0,.57.25.57.57s-.26.56-.57.56h-.97v5.12c0,.37-.29.68-.68.68s-.66-.31-.66-.68v-5.12h-.73Z"/>
    <path class="cls-2" d="M216.89,109.2l1.91-4.63c.13-.34.53-.5.87-.37.35.13.5.53.35.87l-3.76,8.99c-.13.34-.51.5-.87.37-.32-.15-.46-.53-.32-.87l1.09-2.67-2.41-5.83c-.12-.34.04-.76.4-.87.37-.1.7.06.85.43l1.89,4.58Z"/>
    <path class="cls-2" d="M229.51,107.31h-1.31v3.17c0,.38-.29.69-.69.69s-.68-.31-.68-.69v-8.91c0-.32.26-.59.57-.59h3.32c2.13,0,3,1.59,3,3.17,0,1.5-.75,2.95-2.64,3.11l1.98,2.82c.22.32.16.73-.16.95-.31.23-.72.15-.95-.18l-2.44-3.55ZM228.22,102.26v3.77h2.41c1.23,0,1.69-.94,1.69-1.88s-.46-1.89-1.63-1.89h-2.47Z"/>
    <path class="cls-2" d="M241.96,108.18h-5.05c.16,1.15,1.06,1.87,2.22,1.87.82,0,1.28-.21,1.75-.72.25-.28.63-.37.9-.18.26.21.32.6.12.84-.66.85-1.69,1.26-2.81,1.26-1.95,0-3.51-1.42-3.51-3.6s1.56-3.55,3.51-3.55,3.41,1.38,3.41,3.55c0,.31-.25.53-.53.53ZM241.17,107.13c-.16-1.15-.98-1.84-2.09-1.84s-2.01.69-2.17,1.84h4.26Z"/>
    <path class="cls-2" d="M247.06,110.07c.69,0,1.2-.37,1.2-.91,0-.5-.4-.75-.91-.87l-.94-.22c-1.16-.31-1.85-.88-1.85-1.97s1.01-2.01,2.39-2.01c.9,0,1.76.32,2.16,1.12.06.1.07.22.07.31,0,.44-.43.6-.63.6-.19,0-.34-.1-.48-.29-.31-.41-.66-.57-1.09-.57-.65,0-1.07.38-1.07.9,0,.44.43.69.87.79l1.01.25c1.42.35,1.78,1.22,1.78,2,0,1.28-1.23,2.06-2.66,2.06-1.06,0-2.14-.59-2.47-1.64-.02-.07-.03-.15-.03-.21,0-.35.34-.53.65-.53.23,0,.47.12.57.38.19.5.73.82,1.42.82Z"/>
    <path class="cls-2" d="M256.7,110.07c-.41.82-1.39,1.17-2.14,1.17-1.7,0-2.64-1.12-2.64-3.04v-3.36c0-.37.29-.68.68-.68s.66.31.66.68v3.27c0,1.15.57,1.82,1.51,1.82s1.94-.54,1.94-2v-3.1c0-.37.29-.68.68-.68s.66.31.66.68v5.65c0,.37-.29.68-.66.68s-.68-.31-.68-.68v-.43Z"/>
    <path class="cls-2" d="M262.28,110.5c0,.37-.29.68-.68.68s-.66-.31-.66-.68v-9.38c0-.37.29-.68.66-.68s.68.31.68.68v9.38Z"/>
    <path class="cls-2" d="M264.96,105.37c-.31,0-.57-.25-.57-.57s.26-.56.57-.56h.73v-1.98c0-.37.29-.68.66-.68s.68.31.68.68v1.98h.97c.31,0,.57.25.57.57s-.26.56-.57.56h-.97v5.12c0,.37-.29.68-.68.68s-.66-.31-.66-.68v-5.12h-.73Z"/>
    <path class="cls-2" d="M272.83,110.07c.69,0,1.2-.37,1.2-.91,0-.5-.4-.75-.91-.87l-.94-.22c-1.16-.31-1.85-.88-1.85-1.97s1.01-2.01,2.39-2.01c.9,0,1.76.32,2.16,1.12.06.1.07.22.07.31,0,.44-.43.6-.63.6-.19,0-.34-.1-.48-.29-.31-.41-.66-.57-1.09-.57-.65,0-1.07.38-1.07.9,0,.44.43.69.87.79l1.01.25c1.42.35,1.78,1.22,1.78,2,0,1.28-1.23,2.06-2.66,2.06-1.06,0-2.14-.59-2.47-1.64-.02-.07-.03-.15-.03-.21,0-.35.34-.53.65-.53.23,0,.47.12.57.38.19.5.73.82,1.42.82Z"/>
  </g>
  <path class="cls-1" d="M214.79,55.2c0-18.51-12.38-30.27-29.02-30.27-4.4,0-8.55.85-12.3,2.4,0-.03,0-.06,0-.09-.37-1.5-1.34-3.14-2.43-4.29-14.38-16.04-21.4,22.46-25.18,36.84-.89,3.1-2.57,7.06-5.9,7.85-16.12.68-5.95-56.85-34.56-67.23-7.62-2.3-9.16,5.67-8.95,11.47-.05,4.52-.29,11.26,1.84,15.06,1.64,2.73,4.32,3.2,7.28,9.21,8.59,17.24,7,48.5,30.99,51.71,12.57.5,18.69-11.59,20.8-22.58,3.87,12.71,15.05,20.57,28.43,20.57,9.51,0,18.26-3.5,23.89-10.76,1.75-2,1.25-5.38-1-7.13-2.25-1.63-5.5-.88-7.63,1.5-4,4.38-7.88,6.13-14.88,6.13-9.88,0-17.51-6.13-18.88-15.88h43.02c2.38,0,4.5-1.88,4.5-4.5ZM167.26,50.82c1.38-9.75,8.88-15.63,18.51-15.63s16.38,5.88,17.76,15.63h-36.27Z"/>
</svg>