<?xml version="1.0" encoding="utf-8"?>
<!-- Generator: Adobe Illustrator 18.1.1, SVG Export Plug-In . SVG Version: 6.00 Build 0)  -->
<svg version="1.1" id="Layer_1" xmlns="http://www.w3.org/2000/svg" xmlns:xlink="http://www.w3.org/1999/xlink" x="0px" y="0px"
	 viewBox="0 0 3000 3000" enable-background="new 0 0 3000 3000" xml:space="preserve">
<path d="M1500,289C830.0592041,289,285,834.0097656,285,1504s545.0592041,1215,1215,1215s1215-545.0097656,1215-1215
	S2169.940918,289,1500,289z M1500,2617.75c-614.1247559,0-1113.75-499.6252441-1113.75-1113.75S885.8752441,390.25,1500,390.25
	S2613.75,889.8752441,2613.75,1504S2114.1247559,2617.75,1500,2617.75z M2047.0615234,985.2915039
	c-40.6879883,0-79.6948242,15.7214355-109.8276367,44.197998l-686.8981934,648.7316895l-144.4592285-165.1245117
	c-29.1192627-33.3215332-69.090332-51.7126465-112.4972534-51.7126465c-84.960022,0-151.5042114,66.3464355-151.5042114,150.8862305
	c0,36.3867188,13.2247925,71.5869141,37.2766113,99.173584l260.3676758,297.520752
	c28.8474121,33.0249023,70.5240479,51.9104004,114.3265381,51.9104004c38.9327393,0,75.9375-14.732666,104.2410889-41.5283203
	l800.2358398-755.7165527c32.0361328-30.2563477,50.4272461-72.8723145,50.4272461-117.1691895
	C2208.75,1057.5705566,2136.2236328,985.2915039,2047.0615234,985.2915039z M2088.7875977,1190.0656738l-800.2359619,755.7165527
	c-20.0472412,18.984375-54.7037354,17.2045898-72.8475342-3.4606934l-260.2936401-297.421875
	c-7.9348755-9.0966797-12.2854614-20.6652832-12.2854614-32.6293945c0-34.2114258,29.3911743-49.6362305,50.2542114-49.6362305
	c9.7393799,0,23.9529419,2.9663086,36.312561,17.1057129l179.0909424,204.675293
	c9.0471191,10.3820801,21.9506836,16.6113281,35.6945801,17.2045898
	c13.7191162,1.5820313,27.1663818-4.251709,37.1529541-13.7438965l725.1387939-684.8217773
	c14.4608154-13.6450195,29.8856201-16.5124512,40.2924805-16.5124512c29.7124023,0,60.4384766,22.3461914,60.4384766,60.1171875
	C2107.5,1162.9733887,2100.6774902,1178.7937012,2088.7875977,1190.0656738z"/>
</svg>
