<?xml version="1.0" encoding="UTF-8"?>
<svg id="Layer_1" data-name="Layer 1" xmlns="http://www.w3.org/2000/svg" viewBox="0 0 198.71 198.63" width="100" heigth="100">
  <defs>
    <style>
      .cls-1 {
        fill: #fff;
        stroke-width: 0px;
      }
    </style>
  </defs>
  <path class="cls-1" d="M35.3,0C36.66,0,38.02,0,39.38,0c.67.08,1.33.17,2,.25,4.84.56,9.41,1.96,13.7,4.27,16.14,8.69,23.54,28.02,17.36,45.29-.11.3-.19.6-.29.91.21.15.36.27.52.37,3.3,2.15,6.69,4.16,10.22,5.93,3.64,1.83,7.38,3.43,11.36,4.4,2.53.61,5.08.89,7.69.52,2.61-.37,5.11-1.1,7.56-2.03,6.01-2.29,11.56-5.45,16.93-8.95.13-.08.24-.2.39-.33-.13-.38-.24-.75-.37-1.11-2.21-6.33-2.75-12.81-1.43-19.39,1.87-9.32,6.62-16.89,14.19-22.63,5.18-3.92,11.03-6.28,17.48-7.12.92-.12,1.84-.25,2.76-.37,1.36,0,2.72,0,4.07,0,.28.06.56.16.84.18,2.76.15,5.44.7,8.08,1.5,15.55,4.75,27.88,19.84,26.09,39.29-.84,9.17-4.77,16.97-11.46,23.33-9.33,8.88-22.75,12.26-35.16,8.91-1.3-.35-2.58-.79-3.91-1.2-.16.22-.33.41-.46.63-1.29,2.13-2.62,4.23-3.85,6.4-2.42,4.29-4.52,8.72-5.91,13.46-.94,3.23-1.42,6.5-.86,9.86.41,2.47,1.1,4.85,1.99,7.18,2.27,5.95,5.38,11.46,8.84,16.78.09.13.2.24.34.41,3.29-1.23,6.66-2.06,10.15-2.38,3.5-.32,6.97-.12,10.42.55,3.42.66,6.67,1.79,9.77,3.37,3.13,1.59,5.97,3.6,8.54,6,2.57,2.4,4.75,5.12,6.54,8.13,8.07,13.54,6.72,31.28-3.94,43.47-10.4,11.89-27.35,16.15-42.33,9.9-7.48-3.12-13.41-8.14-17.55-15.11-6.17-10.4-6.94-21.37-2.94-32.76-1.49-.93-2.9-1.83-4.34-2.69-4.58-2.74-9.3-5.21-14.37-6.94-3.04-1.04-6.14-1.83-9.39-1.67-3.03.15-5.92.96-8.75,2-5.76,2.12-11.09,5.09-16.25,8.37-.51.33-1.02.66-1.56,1.02.1.34.17.61.27.88,2.01,5.57,2.69,11.29,1.93,17.17-1.11,8.58-4.68,16-10.91,21.97-8.61,8.24-18.92,11.72-30.8,10.28-7.18-.87-13.57-3.69-19.08-8.36-7.73-6.55-12.09-14.92-13.15-25.01-.05-.47-.23-.92-.35-1.37,0-1.42,0-2.85,0-4.27.12-.49.31-.98.36-1.48.48-4.75,1.72-9.29,4.01-13.48,6.83-12.49,17.42-19.18,31.61-20.07,4.79-.3,9.47.53,13.99,2.15.3.11.6.2.93.31.16-.21.31-.38.42-.57,1.34-2.21,2.72-4.4,3.99-6.65,2.3-4.09,4.31-8.32,5.67-12.83.82-2.7,1.4-5.45,1.23-8.3-.18-2.96-.96-5.8-1.97-8.57-2.28-6.23-5.52-11.96-9.12-17.5-.07-.11-.16-.2-.27-.32-.25.07-.5.13-.74.22-6.24,2.26-12.63,2.89-19.17,1.72-8.47-1.52-15.62-5.49-21.34-11.91C4.19,55.91,1.13,48.77.34,40.66c-.04-.43-.22-.85-.34-1.28,0-1.42,0-2.85,0-4.27.12-.46.28-.91.35-1.37.2-1.24.3-2.5.55-3.73,1.76-8.52,5.92-15.64,12.59-21.25C19.01,4.11,25.39,1.33,32.55.37,33.47.25,34.38.12,35.3,0ZM155.89,137.28c.21.29.34.51.5.7,4.08,4.99,8.39,9.75,13.21,14.04,3.2,2.85,4.72,6.47,4.2,10.75-.64,5.17-3.51,8.74-8.43,10.36-4.9,1.62-9.35.47-12.85-3.31-4.47-4.83-9.28-9.27-14.37-13.43-.22-.18-.46-.34-.7-.51-2.01,6.52-.47,18.03,8.99,25.27,9.25,7.08,22.3,6.75,31.19-.83,8.91-7.59,11.34-20.39,5.8-30.66-5.93-10.98-18.08-14.85-27.54-12.39ZM43,137.29c-9.01-2.42-21.01,1.08-27.13,11.68-5.86,10.16-3.85,22.93,4.8,30.83,8.58,7.83,21.54,8.62,31.06,1.89,10.08-7.13,11.81-19.02,9.75-25.71-.06,0-.14-.02-.18,0-.24.17-.47.34-.7.52-4.93,4.04-9.61,8.34-13.91,13.06-3.35,3.67-7.56,5.05-12.39,3.8-4.7-1.22-7.76-4.32-8.91-9.05-1.12-4.61.07-8.73,3.57-11.92,4.89-4.45,9.35-9.29,13.52-14.4.16-.2.3-.41.51-.7ZM42.92,61.36c0-.06,0-.14-.03-.18-.15-.21-.31-.42-.47-.62-4.08-4.99-8.43-9.7-13.22-14.03-3.72-3.37-5.04-7.64-3.73-12.5,1.24-4.61,4.32-7.62,8.97-8.76,4.69-1.15,8.82.11,12.07,3.68,4.45,4.89,9.33,9.31,14.45,13.48.16.13.36.21.56.32,2.21-7.98-.49-19.89-10.79-26.44-10.17-6.46-23.18-4.67-31.27,3.74-8.09,8.42-9.23,21.31-2.68,31.08,6.79,10.12,18.65,12.42,26.13,10.23ZM155.91,61.39c9.49,2.44,21.46-1.42,27.39-12.15,5.65-10.24,3.36-23.06-5.45-30.72-8.8-7.65-21.75-8.17-31.1-1.24-9.68,7.18-11.36,18.76-9.29,25.5.19-.13.38-.25.55-.38,4.11-3.35,8.09-6.85,11.75-10.69,1.12-1.17,2.17-2.4,3.35-3.5,4.82-4.49,12.2-4.43,16.96.12,5.23,5,5.05,13.29-.08,17.91-4.92,4.43-9.36,9.28-13.53,14.39-.18.22-.33.46-.56.77Z"/>
</svg>