<?xml version="1.0" encoding="UTF-8"?>
<svg id="Layer_1" data-name="Layer 1" xmlns="http://www.w3.org/2000/svg" viewBox="0 0 66.49 53.96" width="100" heigth="100">
  <defs>
    <style>
      .cls-1 {
        fill: #000;
        stroke-width: 0px;
      }
    </style>
  </defs>
  <path class="cls-1" d="M55.47,17.94l1.48-6.83L5.82,0,.66,23.73l16.85,3.66c-.03.12-.07.24-.1.36-.97,4.49,1.21,8.92,5.06,10.99v8.14S.01,46.85.01,46.85v7.06s22.44.04,22.44.04h7.06s.01-7.05.01-7.05v-7.21c3.68-.86,6.72-3.74,7.57-7.66.03-.12.04-.25.06-.37l14.64,3.18,1.48-6.83,8.67,7.54,1.22-5.61,1.05-4.83,1.05-4.83,1.22-5.61-11.01,3.27Z"/>
</svg>