<?xml version="1.0" encoding="UTF-8"?>
<svg id="Layer_1" data-name="Layer 1" xmlns="http://www.w3.org/2000/svg" version="1.1" viewBox="0 0 612 792" width="150" heigth="150">
  <defs>
    <style>
      .cls-1 {
        fill: #000;
        stroke-width: 0px;
      }
    </style>
  </defs>
  <path class="cls-1" d="M303.16,440.34c-3.97-.12-9.65-.75-15.13-2.55-1.46-.48-2.6-.27-3.88.57-6.55,4.27-13.01,8.74-20.75,10.71-1.96.5-3.96.93-6,.83-1.95-.1-3.67-.72-4.57-2.6-.86-1.8-.23-3.33.93-4.86,3.06-4.08,6.13-8.16,7.95-13.02,1.36-3.63,1.23-6.66-1.39-10-16.45-21.01-13.03-49.33,7.8-66.49,21.78-17.94,55.02-17.06,75.68,2,21.27,19.63,21.34,50.69.16,70.4-10.24,9.53-24.5,15.02-40.8,15.02h0ZM335.56,392.56c.57,0,1.09-.02,1.61,0,1.84.1,3.56-.16,3.49-2.49-.06-2.15-1.7-2.33-3.43-2.3-3.59.05-7.18.02-10.86.02,0-1.63-.06-2.95.02-4.26.1-1.74-.81-2.88-2.36-2.91-1.54-.03-2.52,1.06-2.44,2.81.06,1.39.01,2.78.01,4.36-3.9,0-7.6.03-11.29-.01-1.74-.02-3.05.51-3.02,2.45.04,1.96,1.4,2.4,3.12,2.35,1.59-.05,3.18-.01,4.77-.01h15.21c-1.68,5.24-4.32,9.4-7.92,13.18-1.95-2.11-3.84-4.07-5.22-6.44-.93-1.6-2.16-2.88-4.02-1.65-1.88,1.25-.99,2.87-.05,4.37,1.53,2.46,3.56,4.55,5.43,6.92-2.78,2.21-5.78,3.77-9.02,4.94-1.52.55-2.86,1.45-2.18,3.3.69,1.89,2.22,1.91,3.92,1.24,3.98-1.57,7.74-3.56,11.13-6.12,3.03,2.24,5.97,4.31,9.21,5.95,1.7.87,3.16.92,4.04-.81.87-1.7-.3-2.8-1.77-3.54-2.73-1.37-5.37-2.88-7.66-5.01,4.49-4.72,7.49-10.12,9.28-16.32h-.01v-.02ZM278.81,390.3c3.39,0,6.74.05,10.08-.03,1.24-.03,1.66.54,1.98,1.62.61,2.01,1.33,3.99,2.09,5.94.52,1.34,1.41,2.34,3.02,1.72,1.58-.6,2.03-1.77,1.47-3.4-3.48-10.02-6.93-20.04-10.41-30.06-.39-1.11-.95-2.12-2.34-2.18-1.52-.06-2.15.92-2.58,2.18-3.47,10.02-6.96,20.02-10.43,30.04-.52,1.51-.33,2.81,1.4,3.4,1.78.62,2.63-.46,3.16-1.9.87-2.38,1.67-4.78,2.56-7.33h0Z"/>
  <path class="cls-1" d="M288.51,385.16h-7.91c1.31-3.77,2.57-7.39,3.98-11.44,1.41,4.09,2.64,7.69,3.93,11.44Z"/>
</svg>