<?xml version="1.0" encoding="UTF-8"?>
<svg id="Layer_1" data-name="Layer 1" xmlns="http://www.w3.org/2000/svg" viewBox="0 0 126.97 180.22">
  <defs>
    <style>
      .cls-1 {
        fill: #000;
        stroke-width: 0px;
      }
    </style>
  </defs>
  <path class="cls-1" d="M53.59,0h19.67c1.1,0,1.99.89,1.99,1.99v4.91h-23.66V1.99c0-1.1.89-1.99,1.99-1.99Z"/>
  <path class="cls-1" d="M53.59,78.61h19.67c1.1,0,1.99.89,1.99,1.99v15.83h-23.66v-15.83c0-1.1.89-1.99,1.99-1.99Z" transform="translate(126.86 175.05) rotate(180)"/>
  <path class="cls-1" d="M90.22,72.58h13.84c1.1,0,1.99.89,1.99,1.99v27.45h-17.82v-27.45c0-1.1.89-1.99,1.99-1.99Z" transform="translate(184.44 -9.83) rotate(90)"/>
  <path class="cls-1" d="M125.26,162.17l-42.36-56.97c-1.34-1.81-3.26-2.93-5.31-3.32h-28.26c-2.03.4-3.93,1.53-5.26,3.32L1.71,162.17c-2.85,3.84-2.06,9.26,1.78,12.11h0c3.84,2.85,9.26,2.06,12.11-1.78l39.12-52.61v51.66c0,4.78,3.88,8.66,8.66,8.66h0c4.78,0,8.66-3.88,8.66-8.66v-51.93l39.32,52.89c2.85,3.84,8.28,4.64,12.12,1.78h0c3.84-2.85,4.64-8.28,1.78-12.12Z"/>
  <path class="cls-1" d="M103.71,12.1H23.15c-4.5,0-8.15,3.65-8.15,8.15v43.66c0,4.5,3.65,8.15,8.15,8.15h80.56c4.5,0,8.15-3.65,8.15-8.15V20.25c0-4.5-3.65-8.15-8.15-8.15ZM90.32,21.67c0-1.66,1.34-3,3-3s3,1.34,3,3-1.34,3-3,3-3-1.34-3-3ZM96.99,31.6c-1.66,0-3-1.34-3-3s1.34-3,3-3,3,1.34,3,3-1.34,3-3,3ZM100.95,24.67c-1.66,0-3-1.34-3-3s1.34-3,3-3,3,1.34,3,3-1.34,3-3,3Z"/>
</svg>