<?xml version="1.0" encoding="UTF-8"?>
<svg id="Layer_1" data-name="Layer 1" xmlns="http://www.w3.org/2000/svg" viewBox="0 0 123.77 198.63" width="25" height="25">
  <defs>
    <style>
      .cls-1 {
        fill: #62C655;
        stroke: #2D671B;
        stroke-width: 8px;
      }
    </style>
  </defs>
  <path class="cls-1" d="M62.01,0c12.8,0,25.6,0,38.4,0,1,0,2-.01,2.99.03,5.95.23,8.23,2.77,7.82,8.66-.51,7.3-4.45,12.76-9.62,17.44-1.72,1.56-2.4,3.17-2.39,5.41.05,16.3.06,32.59-.01,48.89-.01,2.53.87,4.16,2.99,5.53,7.28,4.71,13.53,10.47,17.79,18.16,2.3,4.14,3.67,8.54,3.79,13.29.1,3.96-1.69,6.28-5.62,6.96-1.46.25-2.98.27-4.47.27-13.38.02-26.76.01-40.14.01q-5.7,0-5.71,5.59c0,16.21.04,32.43-.03,48.64-.03,6.04-1.23,11.89-3.64,17.46-.45,1.04-.9,2.32-2.33,2.29-1.41-.03-1.85-1.32-2.29-2.35-2.39-5.57-3.59-11.42-3.62-17.46-.06-16.54-.02-33.09-.03-49.63,0-4.26-.26-4.52-4.52-4.52-13.46,0-26.93,0-40.39,0-1.08,0-2.16.02-3.24-.03-5.81-.25-8.11-2.78-7.69-8.53.59-8.03,4.53-14.49,9.72-20.31,3.45-3.86,7.44-7.14,11.83-9.88,2.05-1.27,2.94-2.85,2.93-5.3-.07-16.38-.06-32.76,0-49.14,0-2.35-.77-3.99-2.57-5.58-5.6-4.96-9.42-10.92-9.53-18.74-.05-3.83,1.69-6.13,5.48-6.83C19.36.05,20.88.02,22.37.01,35.58,0,48.8,0,62.01,0Z"/>
</svg>